<svg width="24" height="24" viewBox="0 0 24 24" fill="none" xmlns="http://www.w3.org/2000/svg">
<path d="M12 7.49976C12.1989 7.49976 12.3897 7.57877 12.5303 7.71943C12.671 7.86008 12.75 8.05084 12.75 8.24976V11.2498H15.75C15.9489 11.2498 16.1397 11.3288 16.2803 11.4694C16.421 11.6101 16.5 11.8008 16.5 11.9998C16.5 12.1987 16.421 12.3894 16.2803 12.5301C16.1397 12.6707 15.9489 12.7498 15.75 12.7498H12.75V15.7498C12.75 15.9487 12.671 16.1394 12.5303 16.2801C12.3897 16.4207 12.1989 16.4998 12 16.4998C11.8011 16.4998 11.6103 16.4207 11.4697 16.2801C11.329 16.1394 11.25 15.9487 11.25 15.7498V12.7498H8.25C8.05109 12.7498 7.86032 12.6707 7.71967 12.5301C7.57902 12.3894 7.5 12.1987 7.5 11.9998C7.5 11.8008 7.57902 11.6101 7.71967 11.4694C7.86032 11.3288 8.05109 11.2498 8.25 11.2498H11.25V8.24976C11.25 8.05084 11.329 7.86008 11.4697 7.71943C11.6103 7.57877 11.8011 7.49976 12 7.49976Z" fill="#00587A"/>
<path d="M3 11.9998C3 10.8179 3.23279 9.64754 3.68508 8.5556C4.13738 7.46367 4.80031 6.47152 5.63604 5.63579C6.47177 4.80007 7.46392 4.13713 8.55585 3.68484C9.64778 3.23255 10.8181 2.99976 12 2.99976C13.1819 2.99976 14.3522 3.23255 15.4442 3.68484C16.5361 4.13713 17.5282 4.80007 18.364 5.63579C19.1997 6.47152 19.8626 7.46367 20.3149 8.5556C20.7672 9.64754 21 10.8179 21 11.9998C21 14.3867 20.0518 16.6759 18.364 18.3637C16.6761 20.0515 14.3869 20.9998 12 20.9998C9.61305 20.9998 7.32387 20.0515 5.63604 18.3637C3.94821 16.6759 3 14.3867 3 11.9998ZM12 4.49976C10.0109 4.49976 8.10322 5.28993 6.6967 6.69646C5.29018 8.10298 4.5 10.0106 4.5 11.9998C4.5 13.9889 5.29018 15.8965 6.6967 17.3031C8.10322 18.7096 10.0109 19.4998 12 19.4998C13.9891 19.4998 15.8968 18.7096 17.3033 17.3031C18.7098 15.8965 19.5 13.9889 19.5 11.9998C19.5 10.0106 18.7098 8.10298 17.3033 6.69646C15.8968 5.28993 13.9891 4.49976 12 4.49976Z" fill="#00587A"/>
</svg>
