<svg width="11" height="11" viewBox="0 0 11 11" fill="none" xmlns="http://www.w3.org/2000/svg">
<g clip-path="url(#clip0_15_585)">
<path d="M5.5 10.3125C4.54818 10.3125 3.61773 10.0302 2.82632 9.50142C2.03491 8.97262 1.41808 8.221 1.05383 7.34164C0.689585 6.46227 0.594282 5.49463 0.779973 4.5611C0.965664 3.62757 1.42401 2.77006 2.09705 2.09702C2.77009 1.42398 3.6276 0.965634 4.56113 0.779942C5.49466 0.594251 6.4623 0.689555 7.34167 1.0538C8.22104 1.41805 8.97265 2.03488 9.50145 2.82629C10.0303 3.6177 10.3125 4.54815 10.3125 5.49997C10.3125 6.77633 9.80547 8.0004 8.90295 8.90292C8.00043 9.80544 6.77636 10.3125 5.5 10.3125ZM5.5 1.37497C4.68415 1.37497 3.88663 1.6169 3.20828 2.07016C2.52992 2.52342 2.00121 3.16766 1.689 3.9214C1.37679 4.67515 1.2951 5.50455 1.45426 6.30472C1.61343 7.10489 2.00629 7.8399 2.58319 8.41679C3.16008 8.99368 3.89508 9.38655 4.69525 9.54571C5.49543 9.70487 6.32483 9.62319 7.07857 9.31097C7.83232 8.99876 8.47655 8.47005 8.92981 7.7917C9.38307 7.11335 9.625 6.31582 9.625 5.49997C9.625 4.40595 9.1904 3.35674 8.41682 2.58316C7.64323 1.80957 6.59402 1.37497 5.5 1.37497Z" fill="#5AC3DD"/>
<path d="M7.07781 7.56247L5.15625 5.64091V2.40622H5.84375V5.35559L7.5625 7.07778L7.07781 7.56247Z" fill="#5AC3DD"/>
</g>
<defs>
<clipPath id="clip0_15_585">
<rect width="11" height="11" fill="white"/>
</clipPath>
</defs>
</svg>
