<svg width="13" height="12" viewBox="0 0 13 12" fill="none" xmlns="http://www.w3.org/2000/svg">
<path d="M11.6459 5.49997V8.49997C11.6459 10.5 11.1042 11 8.93757 11H3.5209C1.35424 11 0.812569 10.5 0.812569 8.49997V3.49997C0.812569 1.49997 1.35424 0.999969 3.5209 0.999969H4.3334C5.1459 0.999969 5.32465 1.21997 5.6334 1.59997L6.4459 2.59997C6.65173 2.84997 6.7709 2.99997 7.31257 2.99997H8.93757C11.1042 2.99997 11.6459 3.49997 11.6459 5.49997Z" stroke="#787486" stroke-width="0.796751" stroke-miterlimit="10"/>
<path d="M4.33333 0.999969H9.20833C10.2917 0.999969 10.8333 1.49997 10.8333 2.49997V3.18997" stroke="#787486" stroke-width="0.796751" stroke-miterlimit="10" stroke-linecap="round" stroke-linejoin="round"/>
<path d="M7.58333 7.49997H4.875" stroke="#787486" stroke-width="0.796751" stroke-miterlimit="10" stroke-linecap="round" stroke-linejoin="round"/>
</svg>
