<svg width="18" height="16" viewBox="0 0 18 16" fill="none" xmlns="http://www.w3.org/2000/svg">
<g clip-path="url(#clip0_30_312)">
<path d="M9.045 9.15112C8.7758 9.15293 8.51504 9.23482 8.30431 9.38372C8.09357 9.53262 7.94499 9.73996 7.88228 9.97267C7.81956 10.2054 7.84632 10.45 7.95828 10.6677C8.07023 10.8853 8.26095 11.0633 8.5 11.1733V12.4445H9.5V11.2133C9.75817 11.1193 9.97162 10.9485 10.1039 10.7302C10.2363 10.5119 10.2792 10.2595 10.2255 10.0161C10.1718 9.77272 10.0248 9.55346 9.8095 9.39572C9.59421 9.23797 9.32401 9.15152 9.045 9.15112Z" fill="#ABAEB0"/>
<path d="M13 6.66667V4.76444C13.0215 3.80084 12.6127 2.86891 11.863 2.17257C11.1134 1.47624 10.084 1.07221 9 1.04889C7.91605 1.07221 6.88662 1.47624 6.13698 2.17257C5.38734 2.86891 4.97853 3.80084 5 4.76444V6.66667H3.5V14.2222C3.5 14.458 3.60536 14.6841 3.79289 14.8508C3.98043 15.0175 4.23478 15.1111 4.5 15.1111H13.5C13.7652 15.1111 14.0196 15.0175 14.2071 14.8508C14.3946 14.6841 14.5 14.458 14.5 14.2222V6.66667H13ZM6 4.76444C5.97844 4.03655 6.28188 3.33066 6.84401 2.80101C7.40613 2.27136 8.18125 1.96101 9 1.93778C9.81875 1.96101 10.5939 2.27136 11.156 2.80101C11.7181 3.33066 12.0216 4.03655 12 4.76444V6.66667H6V4.76444ZM4.5 14.2222V7.55556H13.5V14.2222H4.5Z" fill="#ABAEB0"/>
</g>
<defs>
<clipPath id="clip0_30_312">
<rect width="18" height="16" fill="white"/>
</clipPath>
</defs>
</svg>
