<svg width="14" height="16" viewBox="0 0 14 16" fill="none" xmlns="http://www.w3.org/2000/svg">
<g clip-path="url(#clip0_30_303)">
<path d="M9.61567 7.98399L13.2037 4.42132V11.506L9.61567 7.98399ZM4.99217 8.58732L6.25217 9.83732C6.44992 10.0293 6.70775 10.1453 6.9895 10.1453H6.99942H6.99883H7.007C7.28933 10.1453 7.54717 10.0287 7.74725 9.83532L7.7455 9.83666L9.0055 8.58666L12.8357 12.346H1.16375L4.99217 8.58732ZM1.1585 3.57666H12.8427L7.23042 9.14732C7.16732 9.20436 7.0892 9.23537 7.00875 9.23532H7.00058H7.00117H6.993C6.91226 9.23544 6.83389 9.20417 6.77075 9.14666L6.77133 9.14732L1.1585 3.57666ZM0.79625 4.42066L4.38375 7.98332L0.79625 11.5033V4.42066ZM13.3962 2.79332C13.2562 2.71332 13.0917 2.66666 12.9173 2.66666H1.08442C0.915344 2.6667 0.748595 2.71166 0.597333 2.79799L0.60375 2.79466C0.422668 2.89673 0.27017 3.05464 0.163482 3.25055C0.0567937 3.44646 0.00016762 3.67257 0 3.90332L0 12.018C0.000308819 12.3464 0.114597 12.6613 0.317789 12.8935C0.52098 13.1257 0.796478 13.2563 1.08383 13.2567H12.9156C13.2029 13.2563 13.4784 13.1257 13.6816 12.8935C13.8848 12.6613 13.9991 12.3464 13.9994 12.018V3.90332C13.9994 3.41866 13.755 2.99866 13.3992 2.79666L13.3927 2.79332H13.3962Z" fill="#ABAEB0"/>
</g>
<defs>
<clipPath id="clip0_30_303">
<rect width="14" height="16" fill="white"/>
</clipPath>
</defs>
</svg>
