<svg width="26" height="26" viewBox="0 0 26 26" fill="none" xmlns="http://www.w3.org/2000/svg">
<path d="M12.416 7.57025C12.6092 6.97585 13.4501 6.97585 13.6432 7.57025L14.5747 10.437C14.661 10.7028 14.9088 10.8828 15.1883 10.8828H18.2025C18.8275 10.8828 19.0874 11.6825 18.5817 12.0499L16.1432 13.8216C15.917 13.9859 15.8224 14.2771 15.9088 14.543L16.8402 17.4097C17.0334 18.0041 16.3531 18.4984 15.8474 18.131L13.4088 16.3593C13.1827 16.195 12.8765 16.195 12.6504 16.3593L10.2118 18.131C9.7062 18.4984 9.02589 18.0041 9.21902 17.4097L10.1505 14.543C10.2368 14.2771 10.1422 13.9859 9.91611 13.8216L7.47751 12.0499C6.97189 11.6825 7.23175 10.8828 7.85673 10.8828H10.871C11.1505 10.8828 11.3982 10.7028 11.4846 10.437L12.416 7.57025Z" fill="#FFA800"/>
</svg>
